G04*
G04 #@! TF.GenerationSoftware,Altium Limited,Altium Designer,23.11.1 (41)*
G04*
G04 Layer_Color=32768*
%FSLAX25Y25*%
%MOIN*%
G70*
G04*
G04 #@! TF.SameCoordinates,5FF802D6-143A-4804-846E-93AAEE263E3C*
G04*
G04*
G04 #@! TF.FilePolarity,Positive*
G04*
G01*
G75*
%ADD11C,0.00787*%
%ADD14C,0.00394*%
%ADD20C,0.00600*%
%ADD152C,0.00197*%
D11*
X128976Y173339D02*
Y190268D01*
X99024Y173339D02*
X128976D01*
X99024D02*
Y190268D01*
X128976D01*
X98882Y165268D02*
X128835D01*
X98882Y148339D02*
Y165268D01*
Y148339D02*
X128835D01*
Y165268D01*
X19150Y35698D02*
X54133D01*
Y5284D02*
Y35698D01*
X19150Y5284D02*
X54133D01*
X19150D02*
Y35698D01*
D14*
X166000Y218630D02*
Y222370D01*
X164130Y220500D02*
X167870D01*
X161276Y218335D02*
X170724D01*
X161276Y222665D02*
X170724D01*
Y218335D02*
Y222665D01*
X161276Y218335D02*
Y222665D01*
X192626Y130201D02*
Y142799D01*
Y130201D02*
X208374D01*
Y142799D01*
X192626D02*
X208374D01*
X53201Y243626D02*
X65799D01*
Y259374D01*
X53201D02*
X65799D01*
X53201Y243626D02*
Y259374D01*
X166500Y237630D02*
Y241370D01*
X164630Y239500D02*
X168370D01*
X161776Y241665D02*
X171224D01*
X161776Y237335D02*
X171224D01*
X161776D02*
Y241665D01*
X171224Y237335D02*
Y241665D01*
X148701Y143126D02*
Y158874D01*
X161299D01*
Y143126D02*
Y158874D01*
X148701Y143126D02*
X161299D01*
X192626Y148201D02*
Y160799D01*
Y148201D02*
X208374D01*
Y160799D01*
X192626D02*
X208374D01*
X192126Y166701D02*
Y179299D01*
Y166701D02*
X207874D01*
Y179299D01*
X192126D02*
X207874D01*
X201626Y225201D02*
Y237799D01*
Y225201D02*
X217374D01*
Y237799D01*
X201626D02*
X217374D01*
X12413Y74874D02*
X26587D01*
X12413Y59126D02*
X26587D01*
Y74874D01*
X12413Y59126D02*
Y74874D01*
X19500Y65031D02*
Y68968D01*
X17531Y67000D02*
X21468D01*
X134701Y143126D02*
X147299D01*
Y158874D01*
X134701D02*
X147299D01*
X134701Y143126D02*
Y158874D01*
X62776Y216335D02*
Y220665D01*
X72224Y216335D02*
Y220665D01*
X62776D02*
X72224D01*
X62776Y216335D02*
X72224D01*
X65630Y218500D02*
X69370D01*
X67500Y216630D02*
Y220370D01*
X62776Y210835D02*
Y215165D01*
X72224Y210835D02*
Y215165D01*
X62776D02*
X72224D01*
X62776Y210835D02*
X72224D01*
X65630Y213000D02*
X69370D01*
X67500Y211130D02*
Y214870D01*
X79500Y155130D02*
Y158870D01*
X77630Y157000D02*
X81370D01*
X74776Y154835D02*
X84224D01*
X74776Y159165D02*
X84224D01*
Y154835D02*
Y159165D01*
X74776Y154835D02*
Y159165D01*
X201626Y251799D02*
X217374D01*
Y239201D02*
Y251799D01*
X201626Y239201D02*
X217374D01*
X201626D02*
Y251799D01*
X67701Y243626D02*
Y259374D01*
X80299D01*
Y243626D02*
Y259374D01*
X67701Y243626D02*
X80299D01*
X182000Y248130D02*
Y251870D01*
X180130Y250000D02*
X183870D01*
X177276Y252165D02*
X186724D01*
X177276Y247835D02*
X186724D01*
X177276D02*
Y252165D01*
X186724Y247835D02*
Y252165D01*
X142000Y263130D02*
Y266870D01*
X140130Y265000D02*
X143870D01*
X137276Y262835D02*
X146724D01*
X137276Y267165D02*
X146724D01*
Y262835D02*
Y267165D01*
X137276Y262835D02*
Y267165D01*
X95335Y259724D02*
X99665D01*
X95335Y250276D02*
X99665D01*
Y259724D01*
X95335Y250276D02*
Y259724D01*
X97500Y253130D02*
Y256870D01*
X95630Y255000D02*
X99370D01*
X125984Y234252D02*
Y238189D01*
X124016Y236221D02*
X127953D01*
X97724Y235335D02*
Y239665D01*
X88276Y235335D02*
Y239665D01*
Y235335D02*
X97724D01*
X88276Y239665D02*
X97724D01*
X91130Y237500D02*
X94870D01*
X93000Y235630D02*
Y239370D01*
X48374Y77701D02*
Y90299D01*
X32626D02*
X48374D01*
X32626Y77701D02*
Y90299D01*
Y77701D02*
X48374D01*
X118126Y294299D02*
X133874D01*
Y281701D02*
Y294299D01*
X118126Y281701D02*
X133874D01*
X118126D02*
Y294299D01*
X172500Y273031D02*
Y276969D01*
X170531Y275000D02*
X174469D01*
X164626Y278740D02*
X180374D01*
X164626Y271260D02*
X180374D01*
X164626D02*
Y278740D01*
X180374Y271260D02*
Y278740D01*
X32299Y139299D02*
X36630D01*
X32299Y148748D02*
X36630D01*
X32299Y139299D02*
Y148748D01*
X36630Y139299D02*
Y148748D01*
X34465Y142154D02*
Y145894D01*
X32594Y144024D02*
X36335D01*
X64000Y162630D02*
Y166370D01*
X62130Y164500D02*
X65870D01*
X57898Y161547D02*
X70102D01*
X57898Y167453D02*
X70102D01*
Y161547D02*
Y167453D01*
X57898Y161547D02*
Y167453D01*
X136000Y34032D02*
Y37969D01*
X134031Y36000D02*
X137969D01*
X126748Y40528D02*
X145252D01*
X126748Y31472D02*
X145252D01*
X126748D02*
Y40528D01*
X145252Y31472D02*
Y40528D01*
X115126Y7701D02*
Y20299D01*
Y7701D02*
X130874D01*
Y20299D01*
X115126D02*
X130874D01*
X8201Y189874D02*
X20799D01*
X8201Y174126D02*
Y189874D01*
Y174126D02*
X20799D01*
Y189874D01*
X161000Y80130D02*
Y83870D01*
X159130Y82000D02*
X162870D01*
X156276Y79835D02*
X165724D01*
X156276Y84165D02*
X165724D01*
Y79835D02*
Y84165D01*
X156276Y79835D02*
Y84165D01*
X66843Y149772D02*
Y153709D01*
X64874Y151740D02*
X68811D01*
X71626Y181299D02*
X87374D01*
Y168701D02*
Y181299D01*
X71626Y168701D02*
X87374D01*
X71626D02*
Y181299D01*
X86130Y141000D02*
X89870D01*
X88000Y139130D02*
Y142870D01*
X90165Y136276D02*
Y145724D01*
X85835Y136276D02*
Y145724D01*
X90165D01*
X85835Y136276D02*
X90165D01*
X73732Y136779D02*
Y141110D01*
X64284Y136779D02*
Y141110D01*
Y136779D02*
X73732D01*
X64284Y141110D02*
X73732D01*
X67138Y138945D02*
X70878D01*
X69008Y137075D02*
Y140815D01*
X142000Y161130D02*
Y164870D01*
X140130Y163000D02*
X143870D01*
X137276Y165165D02*
X146724D01*
X137276Y160835D02*
X146724D01*
X137276D02*
Y165165D01*
X146724Y160835D02*
Y165165D01*
X186724Y264835D02*
Y269165D01*
X177276Y264835D02*
Y269165D01*
Y264835D02*
X186724D01*
X177276Y269165D02*
X186724D01*
X180130Y267000D02*
X183870D01*
X182000Y265130D02*
Y268870D01*
X19898Y150520D02*
Y154457D01*
X17929Y152488D02*
X21866D01*
X71126Y193201D02*
X86874D01*
X71126D02*
Y205799D01*
X86874D01*
Y193201D02*
Y205799D01*
X112000Y143130D02*
Y146870D01*
X110130Y145000D02*
X113870D01*
X107276Y142835D02*
X116724D01*
X107276Y147165D02*
X116724D01*
Y142835D02*
Y147165D01*
X107276Y142835D02*
Y147165D01*
X109000Y196130D02*
Y199870D01*
X107130Y198000D02*
X110870D01*
X104276Y195835D02*
X113724D01*
X104276Y200165D02*
X113724D01*
Y195835D02*
Y200165D01*
X104276Y195835D02*
Y200165D01*
X159000Y161130D02*
Y164870D01*
X157130Y163000D02*
X160870D01*
X154276Y160835D02*
X163724D01*
X154276Y165165D02*
X163724D01*
Y160835D02*
Y165165D01*
X154276Y160835D02*
Y165165D01*
X191126Y200201D02*
Y212799D01*
Y200201D02*
X206874D01*
Y212799D01*
X191126D02*
X206874D01*
X191126Y184201D02*
Y196799D01*
Y184201D02*
X206874D01*
Y196799D01*
X191126D02*
X206874D01*
X184126Y316701D02*
X199874D01*
X184126D02*
Y329299D01*
X199874D01*
Y316701D02*
Y329299D01*
X171653Y113386D02*
Y117323D01*
X169685Y115354D02*
X173622D01*
X163386Y119291D02*
X179921D01*
X163386Y111417D02*
X179921D01*
X163386D02*
Y119291D01*
X179921Y111417D02*
Y119291D01*
X30335Y69724D02*
X34665D01*
X30335Y60276D02*
X34665D01*
Y69724D01*
X30335Y60276D02*
Y69724D01*
X32500Y63130D02*
Y66870D01*
X30630Y65000D02*
X34370D01*
X8126Y43701D02*
X23874D01*
X8126D02*
Y56299D01*
X23874D01*
Y43701D02*
Y56299D01*
X36126Y168701D02*
X51874D01*
X36126D02*
Y181299D01*
X51874D01*
Y168701D02*
Y181299D01*
X133126Y7701D02*
Y20299D01*
Y7701D02*
X148874D01*
Y20299D01*
X133126D02*
X148874D01*
X110126Y104701D02*
X125874D01*
X110126D02*
Y117299D01*
X125874D01*
Y104701D02*
Y117299D01*
X177000Y64031D02*
Y67968D01*
X175031Y66000D02*
X178969D01*
X171095Y62850D02*
X182905D01*
X171095Y69150D02*
X182905D01*
Y62850D02*
Y69150D01*
X171095Y62850D02*
Y69150D01*
X70276Y80835D02*
Y85165D01*
X79724Y80835D02*
Y85165D01*
X70276D02*
X79724D01*
X70276Y80835D02*
X79724D01*
X73130Y83000D02*
X76870D01*
X75000Y81130D02*
Y84870D01*
X105260Y68126D02*
X112740D01*
X105260Y83874D02*
X112740D01*
X105260Y68126D02*
Y83874D01*
X112740Y68126D02*
Y83874D01*
X109000Y74032D02*
Y77969D01*
X107032Y76000D02*
X110968D01*
X93032Y93000D02*
X96969D01*
X95000Y91031D02*
Y94968D01*
X98150Y87094D02*
Y98905D01*
X91850Y87094D02*
Y98905D01*
X98150D01*
X91850Y87094D02*
X98150D01*
X133701Y64299D02*
X146299D01*
X133701Y51701D02*
X146299D01*
Y64299D01*
X133701Y51701D02*
Y64299D01*
X140000Y56032D02*
Y59969D01*
X138031Y58000D02*
X141969D01*
X125835Y54276D02*
X130165D01*
X125835Y63724D02*
X130165D01*
X125835Y54276D02*
Y63724D01*
X130165Y54276D02*
Y63724D01*
X128000Y57130D02*
Y60870D01*
X126130Y59000D02*
X129870D01*
X133835Y118724D02*
X138165D01*
X133835Y109276D02*
X138165D01*
Y118724D01*
X133835Y109276D02*
Y118724D01*
X136000Y112130D02*
Y115870D01*
X134130Y114000D02*
X137870D01*
X133835Y106724D02*
X138165D01*
X133835Y97276D02*
X138165D01*
Y106724D01*
X133835Y97276D02*
Y106724D01*
X136000Y100130D02*
Y103870D01*
X134130Y102000D02*
X137870D01*
X227126Y268701D02*
Y281299D01*
Y268701D02*
X242874D01*
Y281299D01*
X227126D02*
X242874D01*
X19110Y138807D02*
Y142547D01*
X17240Y140677D02*
X20980D01*
X14386Y138512D02*
X23835D01*
X14386Y142842D02*
X23835D01*
Y138512D02*
Y142842D01*
X14386Y138512D02*
Y142842D01*
X114260Y68126D02*
X121740D01*
X114260Y83874D02*
X121740D01*
X114260Y68126D02*
Y83874D01*
X121740Y68126D02*
Y83874D01*
X118000Y74032D02*
Y77969D01*
X116032Y76000D02*
X119968D01*
X81201Y256626D02*
Y272374D01*
X93799D01*
Y256626D02*
Y272374D01*
X81201Y256626D02*
X93799D01*
X185000Y234130D02*
Y237870D01*
X183130Y236000D02*
X186870D01*
X180276Y238165D02*
X189724D01*
X180276Y233835D02*
X189724D01*
X180276D02*
Y238165D01*
X189724Y233835D02*
Y238165D01*
X185000Y228630D02*
Y232370D01*
X183130Y230500D02*
X186870D01*
X180276Y232665D02*
X189724D01*
X180276Y228335D02*
X189724D01*
X180276D02*
Y232665D01*
X189724Y228335D02*
Y232665D01*
X143500Y285032D02*
Y288968D01*
X141532Y287000D02*
X145468D01*
X135232Y290937D02*
X151768D01*
X135232Y283063D02*
X151768D01*
X135232D02*
Y290937D01*
X151768Y283063D02*
Y290937D01*
X217630Y259500D02*
X221370D01*
X219500Y257630D02*
Y261370D01*
X217335Y254776D02*
Y264224D01*
X221665Y254776D02*
Y264224D01*
X217335Y254776D02*
X221665D01*
X217335Y264224D02*
X221665D01*
X217630Y271500D02*
X221370D01*
X219500Y269630D02*
Y273370D01*
X216547Y265398D02*
Y277602D01*
X222453Y265398D02*
Y277602D01*
X216547Y265398D02*
X222453D01*
X216547Y277602D02*
X222453D01*
X157335Y278724D02*
X161665D01*
X157335Y269276D02*
X161665D01*
Y278724D01*
X157335Y269276D02*
Y278724D01*
X159500Y272130D02*
Y275870D01*
X157630Y274000D02*
X161370D01*
X151335Y278602D02*
X155665D01*
X151335Y269153D02*
X155665D01*
Y278602D01*
X151335Y269153D02*
Y278602D01*
X153500Y272008D02*
Y275748D01*
X151630Y273878D02*
X155370D01*
X109835Y266276D02*
X114165D01*
X109835Y275724D02*
X114165D01*
X109835Y266276D02*
Y275724D01*
X114165Y266276D02*
Y275724D01*
X112000Y269130D02*
Y272870D01*
X110130Y271000D02*
X113870D01*
X126835Y275724D02*
X131165D01*
X126835Y266276D02*
X131165D01*
Y275724D01*
X126835Y266276D02*
Y275724D01*
X129000Y269130D02*
Y272870D01*
X127130Y271000D02*
X130870D01*
X120335Y266276D02*
X124665D01*
X120335Y275724D02*
X124665D01*
X120335Y266276D02*
Y275724D01*
X124665Y266276D02*
Y275724D01*
X122500Y269130D02*
Y272870D01*
X120630Y271000D02*
X124370D01*
X147724Y203835D02*
Y208165D01*
X138276Y203835D02*
Y208165D01*
Y203835D02*
X147724D01*
X138276Y208165D02*
X147724D01*
X141130Y206000D02*
X144870D01*
X143000Y204130D02*
Y207870D01*
X173228Y122244D02*
Y126575D01*
X163779Y122244D02*
Y126575D01*
Y122244D02*
X173228D01*
X163779Y126575D02*
X173228D01*
X166634Y124409D02*
X170374D01*
X168504Y122539D02*
Y126279D01*
X193224Y121835D02*
Y126165D01*
X183776Y121835D02*
Y126165D01*
Y121835D02*
X193224D01*
X183776Y126165D02*
X193224D01*
X186630Y124000D02*
X190370D01*
X188500Y122130D02*
Y125870D01*
X17776Y80335D02*
Y84665D01*
X27224Y80335D02*
Y84665D01*
X17776D02*
X27224D01*
X17776Y80335D02*
X27224D01*
X20630Y82500D02*
X24370D01*
X22500Y80630D02*
Y84370D01*
X92130Y105000D02*
X95870D01*
X94000Y103130D02*
Y106870D01*
X96165Y100276D02*
Y109724D01*
X91835Y100276D02*
Y109724D01*
X96165D01*
X91835Y100276D02*
X96165D01*
X13630Y195500D02*
X17370D01*
X15500Y193630D02*
Y197370D01*
X17665Y190776D02*
Y200224D01*
X13335Y190776D02*
Y200224D01*
X17665D01*
X13335Y190776D02*
X17665D01*
X23130Y183000D02*
X26870D01*
X25000Y181130D02*
Y184870D01*
X27165Y178276D02*
Y187724D01*
X22835Y178276D02*
Y187724D01*
X27165D01*
X22835Y178276D02*
X27165D01*
X19504Y162823D02*
Y166563D01*
X17634Y164693D02*
X21374D01*
X13402Y167646D02*
X25606D01*
X13402Y161740D02*
X25606D01*
X13402D02*
Y167646D01*
X25606Y161740D02*
Y167646D01*
X9031Y239500D02*
X12968D01*
X11000Y237531D02*
Y241469D01*
X7063Y231232D02*
Y247768D01*
X14937Y231232D02*
Y247768D01*
X7063Y231232D02*
X14937D01*
X7063Y247768D02*
X14937D01*
X18504Y249803D02*
Y254134D01*
X9055Y249803D02*
Y254134D01*
Y249803D02*
X18504D01*
X9055Y254134D02*
X18504D01*
X11909Y251969D02*
X15650D01*
X13780Y250098D02*
Y253839D01*
X188189Y300394D02*
Y304331D01*
X186221Y302362D02*
X190157D01*
X181890Y296063D02*
X194488D01*
X181890Y308661D02*
X194488D01*
Y296063D02*
Y308661D01*
X181890Y296063D02*
Y308661D01*
X173327Y303150D02*
X177067D01*
X175197Y301279D02*
Y305020D01*
X173031Y298425D02*
Y307874D01*
X177362Y298425D02*
Y307874D01*
X173031Y298425D02*
X177362D01*
X173031Y307874D02*
X177362D01*
X106791Y310039D02*
X110531D01*
X108661Y308169D02*
Y311910D01*
X110827Y305315D02*
Y314764D01*
X106496Y305315D02*
Y314764D01*
X110827D01*
X106496Y305315D02*
X110827D01*
X116240Y310039D02*
X119980D01*
X118110Y308169D02*
Y311910D01*
X120276Y305315D02*
Y314764D01*
X115945Y305315D02*
Y314764D01*
X120276D01*
X115945Y305315D02*
X120276D01*
X126083Y310039D02*
X129823D01*
X127953Y308169D02*
Y311910D01*
X130118Y305315D02*
Y314764D01*
X125787Y305315D02*
Y314764D01*
X130118D01*
X125787Y305315D02*
X130118D01*
X135925Y310039D02*
X139665D01*
X137795Y308169D02*
Y311910D01*
X139961Y305315D02*
Y314764D01*
X135630Y305315D02*
Y314764D01*
X139961D01*
X135630Y305315D02*
X139961D01*
X145768Y310039D02*
X149508D01*
X147638Y308169D02*
Y311910D01*
X149803Y305315D02*
Y314764D01*
X145473Y305315D02*
Y314764D01*
X149803D01*
X145473Y305315D02*
X149803D01*
X166130Y201000D02*
X169870D01*
X168000Y199130D02*
Y202870D01*
X170165Y196276D02*
Y205724D01*
X165835Y196276D02*
Y205724D01*
X170165D01*
X165835Y196276D02*
X170165D01*
X173130Y201000D02*
X176870D01*
X175000Y199130D02*
Y202870D01*
X177165Y196276D02*
Y205724D01*
X172835Y196276D02*
Y205724D01*
X177165D01*
X172835Y196276D02*
X177165D01*
X171260Y140748D02*
X175197D01*
X173228Y138779D02*
Y142717D01*
D20*
X83053Y109294D02*
X88003D01*
X83053D02*
Y110644D01*
X66553D02*
X83053D01*
X66553Y109294D02*
Y110644D01*
X61603Y109294D02*
X66553D01*
X61603Y91494D02*
Y109294D01*
Y91494D02*
X66553D01*
Y90144D02*
Y91494D01*
Y90144D02*
X83053D01*
Y91494D01*
X88003D01*
Y109294D01*
D152*
X100787Y261417D02*
X151181D01*
X100787Y211024D02*
X151181D01*
Y261417D01*
X100787Y211024D02*
Y261417D01*
X59756Y143866D02*
X73929D01*
X59756Y159614D02*
X73929D01*
X59756Y143866D02*
Y159614D01*
X73929Y143866D02*
Y159614D01*
X12811Y144614D02*
X26984D01*
X12811Y160362D02*
X26984D01*
X12811Y144614D02*
Y160362D01*
X26984Y144614D02*
Y160362D01*
X184134Y133780D02*
Y147716D01*
X162323Y133780D02*
Y147716D01*
Y133780D02*
X184134D01*
X162323Y147716D02*
X184134D01*
M02*
