G04*
G04 #@! TF.GenerationSoftware,Altium Limited,Altium Designer,23.11.1 (41)*
G04*
G04 Layer_Color=16711935*
%FSLAX25Y25*%
%MOIN*%
G70*
G04*
G04 #@! TF.SameCoordinates,5FF802D6-143A-4804-846E-93AAEE263E3C*
G04*
G04*
G04 #@! TF.FilePolarity,Positive*
G04*
G01*
G75*
%ADD14C,0.00394*%
%ADD149C,0.00000*%
%ADD150C,0.00100*%
%ADD151C,0.00300*%
D14*
X144095Y252362D02*
G03*
X144095Y252362I-1969J0D01*
G01*
X168697Y138279D02*
G03*
X168697Y138279I-1969J0D01*
G01*
X162555Y218630D02*
X169445D01*
X162555Y222370D02*
X169445D01*
Y218630D02*
Y222370D01*
X162555Y218630D02*
Y222370D01*
X163055Y241370D02*
X169945D01*
X163055Y237630D02*
X169945D01*
X163055D02*
Y241370D01*
X169945Y237630D02*
Y241370D01*
X209890Y135000D02*
X246110D01*
X209890Y215000D02*
X246110D01*
Y135000D02*
Y215000D01*
X209890Y135000D02*
Y215000D01*
X13398Y70543D02*
X25602D01*
X13398Y63457D02*
X25602D01*
Y70543D01*
X13398Y63457D02*
Y70543D01*
X64153Y216630D02*
Y220370D01*
X70846Y216630D02*
Y220370D01*
X64153D02*
X70846D01*
X64153Y216630D02*
X70846D01*
X64153Y211130D02*
Y214870D01*
X70846Y211130D02*
Y214870D01*
X64153D02*
X70846D01*
X64153Y211130D02*
X70846D01*
X76153Y155130D02*
X82846D01*
X76153Y158870D02*
X82846D01*
Y155130D02*
Y158870D01*
X76153Y155130D02*
Y158870D01*
X178555Y251870D02*
X185445D01*
X178555Y248130D02*
X185445D01*
X178555D02*
Y251870D01*
X185445Y248130D02*
Y251870D01*
X138555Y263130D02*
X145445D01*
X138555Y266870D02*
X145445D01*
Y263130D02*
Y266870D01*
X138555Y263130D02*
Y266870D01*
X95630Y258445D02*
X99370D01*
X95630Y251555D02*
X99370D01*
Y258445D01*
X95630Y251555D02*
Y258445D01*
X106299Y255906D02*
X145669D01*
X106299Y216535D02*
X145669D01*
Y255906D01*
X106299Y216535D02*
Y255906D01*
X96445Y235630D02*
Y239370D01*
X89555Y235630D02*
Y239370D01*
Y235630D02*
X96445D01*
X89555Y239370D02*
X96445D01*
X165905Y278445D02*
X179095D01*
X165905Y271555D02*
X179095D01*
X165905D02*
Y278445D01*
X179095Y271555D02*
Y278445D01*
X32594Y140677D02*
X36335D01*
X32594Y147370D02*
X36335D01*
X32594Y140677D02*
Y147370D01*
X36335Y140677D02*
Y147370D01*
X60555Y162630D02*
X67445D01*
X60555Y166370D02*
X67445D01*
Y162630D02*
Y166370D01*
X60555Y162630D02*
Y166370D01*
X129405Y39445D02*
X142595D01*
X129405Y32555D02*
X142595D01*
X129405D02*
Y39445D01*
X142595Y32555D02*
Y39445D01*
X157653Y80130D02*
X164347D01*
X157653Y83870D02*
X164347D01*
Y80130D02*
Y83870D01*
X157653Y80130D02*
Y83870D01*
X60839Y148295D02*
X72847D01*
X60839Y155185D02*
X72847D01*
X60839Y148295D02*
Y155185D01*
X72847Y148295D02*
Y155185D01*
X89870Y137654D02*
Y144346D01*
X86130Y137654D02*
Y144346D01*
X89870D01*
X86130Y137654D02*
X89870D01*
X72453Y137075D02*
Y140815D01*
X65563Y137075D02*
Y140815D01*
Y137075D02*
X72453D01*
X65563Y140815D02*
X72453D01*
X138654Y164870D02*
X145346D01*
X138654Y161130D02*
X145346D01*
X138654D02*
Y164870D01*
X145346Y161130D02*
Y164870D01*
X185445Y265130D02*
Y268870D01*
X178555Y265130D02*
Y268870D01*
Y265130D02*
X185445D01*
X178555Y268870D02*
X185445D01*
X13894Y149043D02*
X25902D01*
X13894Y155933D02*
X25902D01*
X13894Y149043D02*
Y155933D01*
X25902Y149043D02*
Y155933D01*
X108653Y143130D02*
X115347D01*
X108653Y146870D02*
X115347D01*
Y143130D02*
Y146870D01*
X108653Y143130D02*
Y146870D01*
X105654Y196130D02*
X112346D01*
X105654Y199870D02*
X112346D01*
Y196130D02*
Y199870D01*
X105654Y196130D02*
Y199870D01*
X155654Y161130D02*
X162346D01*
X155654Y164870D02*
X162346D01*
Y161130D02*
Y164870D01*
X155654Y161130D02*
Y164870D01*
X164764Y119095D02*
X178543D01*
X164764Y111614D02*
X178543D01*
X164764D02*
Y119095D01*
X178543Y111614D02*
Y119095D01*
X30630Y68445D02*
X34370D01*
X30630Y61555D02*
X34370D01*
Y68445D01*
X30630Y61555D02*
Y68445D01*
X172669Y63146D02*
X181331D01*
X172669Y68854D02*
X181331D01*
Y63146D02*
Y68854D01*
X172669Y63146D02*
Y68854D01*
X71555Y81130D02*
Y84870D01*
X78445Y81130D02*
Y84870D01*
X71555D02*
X78445D01*
X71555Y81130D02*
X78445D01*
X105457Y69307D02*
X112543D01*
X105457Y82693D02*
X112543D01*
X105457Y69307D02*
Y82693D01*
X112543Y69307D02*
Y82693D01*
X97854Y88669D02*
Y97331D01*
X92146Y88669D02*
Y97331D01*
X97854D01*
X92146Y88669D02*
X97854D01*
X134095Y60756D02*
X145905D01*
X134095Y55244D02*
X145905D01*
Y60756D01*
X134095Y55244D02*
Y60756D01*
X126130Y55654D02*
X129870D01*
X126130Y62347D02*
X129870D01*
X126130Y55654D02*
Y62347D01*
X129870Y55654D02*
Y62347D01*
X134130Y117347D02*
X137870D01*
X134130Y110653D02*
X137870D01*
Y117347D01*
X134130Y110653D02*
Y117347D01*
Y105347D02*
X137870D01*
X134130Y98654D02*
X137870D01*
Y105347D01*
X134130Y98654D02*
Y105347D01*
X15665Y138807D02*
X22555D01*
X15665Y142547D02*
X22555D01*
Y138807D02*
Y142547D01*
X15665Y138807D02*
Y142547D01*
X114457Y69307D02*
X121543D01*
X114457Y82693D02*
X121543D01*
X114457Y69307D02*
Y82693D01*
X121543Y69307D02*
Y82693D01*
X181653Y237870D02*
X188347D01*
X181653Y234130D02*
X188347D01*
X181653D02*
Y237870D01*
X188347Y234130D02*
Y237870D01*
X181653Y232370D02*
X188347D01*
X181653Y228630D02*
X188347D01*
X181653D02*
Y232370D01*
X188347Y228630D02*
Y232370D01*
X136610Y290740D02*
X150390D01*
X136610Y283260D02*
X150390D01*
X136610D02*
Y290740D01*
X150390Y283260D02*
Y290740D01*
X217630Y256153D02*
Y262846D01*
X221370Y256153D02*
Y262846D01*
X217630Y256153D02*
X221370D01*
X217630Y262846D02*
X221370D01*
X217630Y268154D02*
Y274847D01*
X221370Y268154D02*
Y274847D01*
X217630Y268154D02*
X221370D01*
X217630Y274847D02*
X221370D01*
X157630Y277445D02*
X161370D01*
X157630Y270555D02*
X161370D01*
Y277445D01*
X157630Y270555D02*
Y277445D01*
X151630Y277323D02*
X155370D01*
X151630Y270433D02*
X155370D01*
Y277323D01*
X151630Y270433D02*
Y277323D01*
X110130Y267555D02*
X113870D01*
X110130Y274445D02*
X113870D01*
X110130Y267555D02*
Y274445D01*
X113870Y267555D02*
Y274445D01*
X127130Y274445D02*
X130870D01*
X127130Y267555D02*
X130870D01*
Y274445D01*
X127130Y267555D02*
Y274445D01*
X120630Y267555D02*
X124370D01*
X120630Y274445D02*
X124370D01*
X120630Y267555D02*
Y274445D01*
X124370Y267555D02*
Y274445D01*
X146445Y204130D02*
Y207870D01*
X139555Y204130D02*
Y207870D01*
Y204130D02*
X146445D01*
X139555Y207870D02*
X146445D01*
X171949Y122539D02*
Y126279D01*
X165059Y122539D02*
Y126279D01*
Y122539D02*
X171949D01*
X165059Y126279D02*
X171949D01*
X191945Y122130D02*
Y125870D01*
X185055Y122130D02*
Y125870D01*
Y122130D02*
X191945D01*
X185055Y125870D02*
X191945D01*
X19055Y80630D02*
Y84370D01*
X25945Y80630D02*
Y84370D01*
X19055D02*
X25945D01*
X19055Y80630D02*
X25945D01*
X95870Y101654D02*
Y108346D01*
X92130Y101654D02*
Y108346D01*
X95870D01*
X92130Y101654D02*
X95870D01*
X17370Y192154D02*
Y198846D01*
X13630Y192154D02*
Y198846D01*
X17370D01*
X13630Y192154D02*
X17370D01*
X26870Y179654D02*
Y186346D01*
X23130Y179654D02*
Y186346D01*
X26870D01*
X23130Y179654D02*
X26870D01*
X16059Y166563D02*
X22949D01*
X16059Y162823D02*
X22949D01*
X16059D02*
Y166563D01*
X22949Y162823D02*
Y166563D01*
X7260Y232610D02*
Y246390D01*
X14740Y232610D02*
Y246390D01*
X7260Y232610D02*
X14740D01*
X7260Y246390D02*
X14740D01*
X17224Y250098D02*
Y253839D01*
X10335Y250098D02*
Y253839D01*
Y250098D02*
X17224D01*
X10335Y253839D02*
X17224D01*
X185433Y296457D02*
X190945D01*
X185433Y308268D02*
X190945D01*
Y296457D02*
Y308268D01*
X185433Y296457D02*
Y308268D01*
X173327Y299803D02*
Y306496D01*
X177067Y299803D02*
Y306496D01*
X173327Y299803D02*
X177067D01*
X173327Y306496D02*
X177067D01*
X110531Y306693D02*
Y313386D01*
X106791Y306693D02*
Y313386D01*
X110531D01*
X106791Y306693D02*
X110531D01*
X119980Y306693D02*
Y313386D01*
X116240Y306693D02*
Y313386D01*
X119980D01*
X116240Y306693D02*
X119980D01*
X129823D02*
Y313386D01*
X126083Y306693D02*
Y313386D01*
X129823D01*
X126083Y306693D02*
X129823D01*
X139665D02*
Y313386D01*
X135925Y306693D02*
Y313386D01*
X139665D01*
X135925Y306693D02*
X139665D01*
X149508Y306693D02*
Y313386D01*
X145768Y306693D02*
Y313386D01*
X149508D01*
X145768Y306693D02*
X149508D01*
X169870Y197653D02*
Y204346D01*
X166130Y197653D02*
Y204346D01*
X169870D01*
X166130Y197653D02*
X169870D01*
X176870D02*
Y204346D01*
X173130Y197653D02*
Y204346D01*
X176870D01*
X173130Y197653D02*
X176870D01*
X183071Y134843D02*
Y146653D01*
X163386Y134843D02*
Y146653D01*
Y134843D02*
X183071D01*
X163386Y146653D02*
X183071D01*
D149*
X76003Y90544D02*
G03*
X73603Y90544I-1200J0D01*
G01*
D150*
X82653D02*
Y110244D01*
X66953Y90544D02*
X82653D01*
X66953D02*
Y110244D01*
X82653D01*
X62603Y91894D02*
X66953D01*
X62603D02*
Y93894D01*
X66953D01*
Y91894D02*
Y93894D01*
X62603Y96894D02*
X66953D01*
X62603D02*
Y98894D01*
X66953D01*
Y96894D02*
Y98894D01*
X62603Y101894D02*
X66953D01*
X62603D02*
Y103894D01*
X66953D01*
Y101894D02*
Y103894D01*
X62603Y106894D02*
X66953D01*
X62603D02*
Y108894D01*
X66953D01*
Y106894D02*
Y108894D01*
X82653D02*
X87003D01*
Y106894D02*
Y108894D01*
X82653Y106894D02*
X87003D01*
X82653D02*
Y108894D01*
Y103894D02*
X87003D01*
Y101894D02*
Y103894D01*
X82653Y101894D02*
X87003D01*
X82653D02*
Y103894D01*
Y98894D02*
X87003D01*
Y96894D02*
Y98894D01*
X82653Y96894D02*
X87003D01*
X82653D02*
Y98894D01*
Y93894D02*
X87003D01*
Y91894D02*
Y93894D01*
X82653Y91894D02*
X87003D01*
X82653D02*
Y93894D01*
D151*
X82403Y91678D02*
X79071Y95011D01*
X82403D02*
X79071Y91678D01*
X82403Y93344D02*
X79071D01*
X80737Y95011D02*
Y91678D01*
M02*
