G04*
G04 #@! TF.GenerationSoftware,Altium Limited,Altium Designer,23.11.1 (41)*
G04*
G04 Layer_Physical_Order=1*
G04 Layer_Color=255*
%FSLAX25Y25*%
%MOIN*%
G70*
G04*
G04 #@! TF.SameCoordinates,5FF802D6-143A-4804-846E-93AAEE263E3C*
G04*
G04*
G04 #@! TF.FilePolarity,Positive*
G04*
G01*
G75*
%ADD11C,0.00787*%
%ADD13C,0.03150*%
%ADD18C,0.01181*%
%ADD23R,0.03150X0.03543*%
%ADD24R,0.13780X0.07874*%
%ADD25R,0.07874X0.13780*%
%ADD26R,0.06102X0.05906*%
%ADD27R,0.05315X0.01575*%
%ADD28R,0.03150X0.03937*%
%ADD29R,0.02559X0.04331*%
%ADD30R,0.09843X0.06299*%
%ADD31R,0.10236X0.04724*%
%ADD32R,0.02756X0.03543*%
%ADD33R,0.05512X0.07480*%
%ADD34R,0.03543X0.03150*%
%ADD35O,0.00984X0.06102*%
%ADD36O,0.06102X0.00984*%
%ADD37R,0.04331X0.06693*%
%ADD38R,0.03543X0.02756*%
%ADD39R,0.03937X0.03937*%
%ADD40R,0.05118X0.07087*%
%ADD41R,0.02362X0.04134*%
%ADD42R,0.03543X0.09843*%
%ADD43R,0.03937X0.07087*%
%ADD44R,0.04331X0.05118*%
%ADD45R,0.09843X0.12598*%
%ADD46R,0.06693X0.04331*%
%ADD47R,0.05118X0.04331*%
%ADD48R,0.02362X0.03937*%
%ADD49R,0.07400X0.02000*%
%ADD50O,0.02165X0.09449*%
%ADD51R,0.03937X0.02362*%
%ADD52R,0.09449X0.12992*%
%ADD53R,0.03937X0.03543*%
%ADD54R,0.07087X0.03937*%
%ADD55O,0.09449X0.02165*%
%ADD82R,0.08465X0.09000*%
%ADD106C,0.01968*%
%ADD107C,0.01500*%
%ADD108C,0.03937*%
%ADD109C,0.06496*%
%ADD110R,0.06496X0.06496*%
G04:AMPARAMS|DCode=111|XSize=49.21mil|YSize=47.24mil|CornerRadius=11.81mil|HoleSize=0mil|Usage=FLASHONLY|Rotation=90.000|XOffset=0mil|YOffset=0mil|HoleType=Round|Shape=RoundedRectangle|*
%AMROUNDEDRECTD111*
21,1,0.04921,0.02362,0,0,90.0*
21,1,0.02559,0.04724,0,0,90.0*
1,1,0.02362,0.01181,0.01280*
1,1,0.02362,0.01181,-0.01280*
1,1,0.02362,-0.01181,-0.01280*
1,1,0.02362,-0.01181,0.01280*
%
%ADD111ROUNDEDRECTD111*%
G04:AMPARAMS|DCode=112|XSize=68.9mil|YSize=68.9mil|CornerRadius=17.22mil|HoleSize=0mil|Usage=FLASHONLY|Rotation=90.000|XOffset=0mil|YOffset=0mil|HoleType=Round|Shape=RoundedRectangle|*
%AMROUNDEDRECTD112*
21,1,0.06890,0.03445,0,0,90.0*
21,1,0.03445,0.06890,0,0,90.0*
1,1,0.03445,0.01722,0.01722*
1,1,0.03445,0.01722,-0.01722*
1,1,0.03445,-0.01722,-0.01722*
1,1,0.03445,-0.01722,0.01722*
%
%ADD112ROUNDEDRECTD112*%
%ADD113C,0.07874*%
%ADD114R,0.07874X0.07874*%
%ADD115C,0.08000*%
%ADD116R,0.08000X0.08000*%
%ADD117C,0.05906*%
%ADD118R,0.05906X0.05906*%
%ADD119C,0.11811*%
%ADD120R,0.06500X0.06500*%
%ADD121C,0.06500*%
%ADD122C,0.03937*%
%ADD123C,0.05000*%
%ADD124C,0.03150*%
D11*
X58106Y107894D02*
X65703D01*
D13*
X237475Y242622D02*
X238587Y241510D01*
X238094Y235473D02*
Y240604D01*
X238587Y241097D01*
X238000Y235379D02*
X238094Y235473D01*
X239000Y224000D02*
Y224501D01*
X238000Y225501D02*
X239000Y224501D01*
X238000Y225501D02*
Y235379D01*
D18*
X122697Y273756D02*
X123681Y274740D01*
X122500Y273756D02*
X122697D01*
X123681Y274740D02*
Y277681D01*
X124000Y278000D01*
X168504Y147539D02*
Y155504D01*
X169000Y156000D01*
X21000Y207500D02*
Y213039D01*
X21461Y213500D01*
X96657Y243110D02*
X104232D01*
X98378Y252122D02*
X98500Y252244D01*
X87500Y252267D02*
X96657Y243110D01*
X87500Y252267D02*
Y264500D01*
X92500Y252000D02*
X92622Y252122D01*
X98378D01*
X87500Y264500D02*
Y272808D01*
X191256Y124000D02*
X195000D01*
X197500Y121500D01*
X139218Y265026D02*
Y269474D01*
X139193Y269500D02*
X139218Y269474D01*
X135846Y264114D02*
Y272063D01*
X139218Y265026D02*
X139244Y265000D01*
X135846Y272063D02*
X145500Y281716D01*
X129232Y268209D02*
X131941Y265500D01*
X134843Y263110D02*
X135846Y264114D01*
X131941Y265500D02*
X132500D01*
X134843Y257972D02*
Y263110D01*
X129035Y268209D02*
X129232D01*
X161953Y163000D02*
Y163394D01*
X164575Y166016D01*
Y169075D01*
X165000Y169500D01*
X138779Y262048D02*
X138975Y262244D01*
X139244D01*
X138779Y257972D02*
Y262048D01*
X139244Y262244D02*
Y265000D01*
X184252Y316252D02*
X191000Y323000D01*
X116000Y250246D02*
X117126Y251372D01*
X109705Y237205D02*
X119346Y246847D01*
X117126Y251372D02*
Y257972D01*
X119346Y246847D02*
Y253644D01*
X116000Y249500D02*
Y250246D01*
X119095Y253896D02*
X119346Y253644D01*
X165000Y209500D02*
X168000Y206500D01*
X138779Y210392D02*
X139672Y209500D01*
X165000D01*
X146256Y205500D02*
X151000D01*
X145756Y206000D02*
X146256Y205500D01*
X138779Y210392D02*
Y214469D01*
X168000Y203953D02*
Y206500D01*
X136746Y207000D02*
X137746Y206000D01*
X136000Y207000D02*
X136746D01*
X137746Y206000D02*
X140244D01*
X134843Y210433D02*
X139760Y205516D01*
X128937Y206546D02*
X132661Y202823D01*
X156047Y163000D02*
Y182220D01*
X130905Y207362D02*
X156047Y182220D01*
X132661Y200122D02*
Y202823D01*
Y200122D02*
X133392Y199392D01*
X35173Y147173D02*
X43929Y155929D01*
X23638Y147173D02*
X35173D01*
X34465Y141071D02*
X34500Y141035D01*
Y135272D02*
Y141035D01*
X76547Y157000D02*
X77047D01*
X82476Y152024D02*
X82500Y152000D01*
X83252Y157299D02*
X88000D01*
X82226Y138274D02*
X86774D01*
X87000Y138047D01*
X82000Y138500D02*
X82226Y138274D01*
X82453Y157000D02*
X82476Y156976D01*
X175000Y295500D02*
Y300000D01*
X175197Y300197D01*
X184000Y298370D02*
X184252Y298622D01*
X184000Y294000D02*
Y298370D01*
X190500Y164000D02*
X190901Y163599D01*
Y158719D02*
Y163599D01*
Y158719D02*
X191774Y157846D01*
X177000Y157967D02*
Y159000D01*
X177953Y147539D02*
Y157014D01*
X177000Y157967D02*
X177953Y157014D01*
Y126699D02*
Y133957D01*
X171260Y124409D02*
X171350Y124500D01*
X176500D02*
Y125246D01*
X177953Y126699D01*
X175081Y126664D02*
Y126700D01*
X174803Y126978D02*
Y133957D01*
X171350Y124500D02*
X176500D01*
X174803Y126978D02*
X175081Y126700D01*
Y126664D02*
X176500Y125246D01*
X170634Y141437D02*
X173563D01*
X174615Y134334D02*
Y140385D01*
X173563Y141437D02*
X174615Y140385D01*
X174992Y133957D02*
X177953D01*
X174615Y134334D02*
X174992Y133957D01*
X168504Y147539D02*
X168692Y147351D01*
Y143379D02*
X170634Y141437D01*
X168692Y143379D02*
Y147351D01*
X86808Y273500D02*
X87500Y272808D01*
X35423Y273500D02*
X86808D01*
X30821Y268898D02*
X35423Y273500D01*
X54500Y264500D02*
X66000D01*
X71030Y254469D02*
X74000Y251500D01*
X71030Y254469D02*
Y259470D01*
X66000Y264500D02*
X71030Y259470D01*
X74970Y256530D02*
X90358Y241142D01*
X36519Y270000D02*
X49000D01*
X54500Y264500D01*
X35827Y269308D02*
X36519Y270000D01*
X35827Y262992D02*
Y269308D01*
X71917Y239083D02*
X78417D01*
X59500Y251500D02*
X71917Y239083D01*
X78417D02*
X86201Y231299D01*
X57500Y249500D02*
X59500Y251500D01*
X114000Y182000D02*
X122858D01*
X233380Y242955D02*
X237152D01*
X238587Y241097D02*
Y241510D01*
X90358Y241142D02*
X104232D01*
X98000Y227500D02*
X100106Y225394D01*
X104232D01*
X84000Y227500D02*
X98000D01*
X80575Y223425D02*
X104232D01*
X61291Y242709D02*
X80575Y223425D01*
X40791Y242709D02*
X61291D01*
X86201Y231299D02*
X104232D01*
X26997Y256503D02*
X40791Y242709D01*
X26997Y256503D02*
Y261811D01*
X21500Y223539D02*
Y229500D01*
X21461Y223500D02*
X21500Y223539D01*
X44000Y162000D02*
Y174500D01*
X43929Y155929D02*
Y161929D01*
X44000Y162000D01*
X65000Y135213D02*
X66252Y136465D01*
X65000Y134500D02*
Y135213D01*
X66252Y136465D02*
Y145835D01*
X71500Y134000D02*
X71632Y134132D01*
Y138813D02*
X71764Y138945D01*
X71632Y134132D02*
Y138813D01*
X70583Y140126D02*
X71764Y138945D01*
X103369Y219488D02*
X112399D01*
X113091Y214567D02*
Y218796D01*
X112399Y219488D02*
X113091Y218796D01*
X100881Y217000D02*
X103369Y219488D01*
X100500Y217000D02*
X100881D01*
X128937Y206546D02*
Y214469D01*
X127000Y202000D02*
Y205700D01*
X126969Y205731D02*
X127000Y205700D01*
X130905Y207362D02*
Y214469D01*
X126969Y205731D02*
Y214469D01*
X168216Y213000D02*
X175000Y206216D01*
X140748Y213098D02*
Y214469D01*
X153000Y218000D02*
X156032Y214968D01*
X140748Y213098D02*
X140847Y213000D01*
X168216D01*
X156032Y214968D02*
X172031D01*
X190000Y197000D01*
X157500Y219500D02*
Y224000D01*
X152169Y229331D02*
X157500Y224000D01*
X147736Y229331D02*
X152169D01*
X155201Y231299D02*
X162377Y224123D01*
Y221367D02*
Y224123D01*
X147736Y231299D02*
X155201D01*
X129794D02*
X147736D01*
X162377Y221367D02*
X163244Y220500D01*
X121595Y287483D02*
Y289154D01*
X126969Y257972D02*
Y260531D01*
Y253896D02*
Y257972D01*
X121595Y289154D02*
X137441D01*
X168756Y220500D02*
X169256Y221000D01*
X176000D01*
X153000Y218000D02*
Y224000D01*
X151705Y225295D02*
X153000Y224000D01*
X147835Y225295D02*
X151705D01*
X181260Y229500D02*
X182047Y230287D01*
X158548Y235236D02*
X164284Y229500D01*
X182047Y230287D02*
Y230500D01*
X164284Y229500D02*
X181260D01*
X189551Y227000D02*
X204000Y212551D01*
X157732Y233268D02*
X164000Y227000D01*
X189551D01*
X132878Y273878D02*
X133000Y274000D01*
X129000Y273756D02*
X129122Y273878D01*
X132878D01*
X145500Y281716D02*
Y296500D01*
X118500Y265500D02*
Y280216D01*
X119784Y281500D01*
X118500Y265500D02*
X121063Y262937D01*
X178315Y278000D02*
X182000D01*
X184500Y275500D01*
X153622Y271244D02*
X159500D01*
X153500Y271122D02*
X153622Y271244D01*
X160329Y277000D02*
X167685D01*
X153973Y279666D02*
Y281973D01*
X153500Y279193D02*
X153973Y279666D01*
Y281973D02*
X154500Y282500D01*
X153500Y276634D02*
Y279193D01*
X149406Y275217D02*
Y287000D01*
Y275217D02*
X153500Y271122D01*
X144878Y265122D02*
Y269378D01*
X145000Y269500D01*
X144953Y265000D02*
X145000D01*
X144878Y265122D02*
X145000Y265000D01*
X119784Y281500D02*
X142500D01*
X143500Y282500D02*
Y297500D01*
X142500Y281500D02*
X143500Y282500D01*
X137441Y289154D02*
X137594Y289000D01*
X120765Y286653D02*
X121595Y287483D01*
X176074Y266926D02*
X179170D01*
X173721Y269280D02*
X176074Y266926D01*
X164909Y269280D02*
X173721D01*
X162291Y266661D02*
X164909Y269280D01*
X179170Y266926D02*
X179244Y267000D01*
X160789Y265159D02*
X162291Y266661D01*
X159778Y265159D02*
X160776Y264161D01*
X158842Y264223D02*
X159778Y265159D01*
X160789D01*
X159778D02*
X161280Y266661D01*
X162291D01*
X158842Y261842D02*
Y264223D01*
X164909Y250413D02*
X165984Y249339D01*
X164909Y250413D02*
Y251150D01*
X156055Y251308D02*
X156747Y252000D01*
X164059D02*
X164909Y251150D01*
X156747Y252000D02*
X164059D01*
X156055Y247555D02*
Y251308D01*
X165984Y249339D02*
X169724D01*
X178583D01*
X153579Y245079D02*
X156055Y247555D01*
X169756Y240000D02*
X174500D01*
X169256Y239500D02*
X169756Y240000D01*
X166159Y236039D02*
X166536Y235662D01*
X166159Y236039D02*
Y236888D01*
X163744Y239303D02*
Y239500D01*
X179151Y232710D02*
X182047Y235606D01*
X159363Y237205D02*
X163858Y232710D01*
X179151D01*
X163744Y239303D02*
X166159Y236888D01*
X182047Y235606D02*
Y236000D01*
X147736Y235236D02*
X158548D01*
X147736Y233268D02*
X157732D01*
X150197Y237205D02*
X159363D01*
X147736Y235236D02*
X147736Y235236D01*
X150197Y237205D02*
X150197Y237205D01*
X147736Y237205D02*
X150197D01*
X147835Y239272D02*
X163516D01*
X163744Y239500D01*
X86000Y237500D02*
X90244D01*
X90244Y237500D01*
X129000Y268244D02*
X129035Y268209D01*
Y258071D02*
Y268209D01*
X124315Y263877D02*
X126000D01*
X126870Y263007D01*
Y260630D02*
Y263007D01*
X123623Y264569D02*
Y267260D01*
Y264569D02*
X124315Y263877D01*
X126870Y260630D02*
X126969Y260531D01*
X122639Y268244D02*
X123623Y267260D01*
X122500Y268244D02*
X122639D01*
X143772Y263819D02*
X144953Y265000D01*
X140847Y260433D02*
X143772Y263358D01*
Y263819D01*
X148906Y289000D02*
X150000Y287906D01*
X53000Y164500D02*
X60850D01*
X67150Y161102D02*
Y164500D01*
X63102Y157055D02*
X67150Y161102D01*
Y164500D02*
X79500Y176850D01*
X70583Y157055D02*
X70638Y157000D01*
X185744Y124000D02*
Y129315D01*
X181102Y133957D02*
X185744Y129315D01*
X177559Y115354D02*
X185744Y123539D01*
Y124000D01*
X118000Y112000D02*
Y134000D01*
X20810Y254190D02*
Y262992D01*
X43000Y232000D02*
X64733D01*
X20810Y254190D02*
X43000Y232000D01*
X17004Y251303D02*
Y251500D01*
Y251303D02*
X21500Y246807D01*
Y246500D02*
Y246807D01*
X64733Y232000D02*
X77701Y219032D01*
X97815D01*
X100500Y210547D02*
Y216984D01*
X97815Y219032D02*
X100156Y221372D01*
X100500Y216984D02*
X100508Y216992D01*
X100156Y221372D02*
Y221457D01*
X104232D01*
X56500Y213500D02*
X64047D01*
X64547Y213000D01*
X56500Y223500D02*
X61500Y218500D01*
X64547D01*
X75473Y210027D02*
X76000Y209500D01*
X73426Y210027D02*
X75473D01*
X70453Y213000D02*
X73426Y210027D01*
X70453Y218500D02*
X73500D01*
X76000Y216000D01*
X89453Y199500D02*
X100500Y210547D01*
X79000Y199500D02*
X89453D01*
X25815Y262992D02*
X26997Y261811D01*
X19595Y142948D02*
Y143384D01*
Y142948D02*
X21866Y140677D01*
X19595Y143384D02*
X19898Y143686D01*
Y147173D01*
X21866Y140677D02*
X24137Y138406D01*
X15500Y198453D02*
X15846Y198799D01*
X40832Y253668D02*
X45000Y249500D01*
X57500D01*
X47019Y256727D02*
Y261811D01*
Y256727D02*
X48500Y255246D01*
Y254500D02*
Y255246D01*
X40832Y253668D02*
Y262992D01*
X45838D02*
X47019Y261811D01*
X98315Y237500D02*
X98610Y237205D01*
X104232D01*
X95756Y237500D02*
X98315D01*
X98500Y249685D02*
X99169Y249016D01*
X104232D01*
X98500Y249685D02*
Y252244D01*
X30821Y262992D02*
Y268898D01*
X98500Y265000D02*
X104232Y259268D01*
X98500Y265000D02*
X98500Y265000D01*
X104232Y250984D02*
Y259268D01*
X98500Y257756D02*
Y265000D01*
X105146Y247146D02*
X108308D01*
X104232Y247047D02*
X105048D01*
X105146Y247146D01*
X11000Y245406D02*
X11024Y245429D01*
X10799Y262992D02*
X11024Y262767D01*
X24137Y136863D02*
X26500Y134500D01*
X24137Y136863D02*
Y138406D01*
X22000Y67000D02*
X23240Y68240D01*
X21000Y67000D02*
X22000D01*
X20189Y66189D02*
X21000Y67000D01*
X20189Y62965D02*
Y66189D01*
X23240Y68240D02*
Y71724D01*
X25256Y73740D01*
X19500Y62276D02*
X20189Y62965D01*
X214500Y136500D02*
X233000Y155000D01*
X200500Y136500D02*
X214500D01*
X222500Y154500D02*
X223000Y155000D01*
X200500Y154500D02*
X222500D01*
X208000Y165000D02*
X223000D01*
X200000Y173000D02*
X208000Y165000D01*
X108653Y288458D02*
X124195Y304000D01*
X108653Y266295D02*
Y288458D01*
X124195Y304000D02*
X134709D01*
X124303Y307087D02*
X127953D01*
X106685Y289469D02*
X124303Y307087D01*
X106685Y265480D02*
Y289469D01*
X113091Y258071D02*
Y261909D01*
X111705Y263295D02*
X113091Y261909D01*
X108870Y263295D02*
X111705D01*
X112011Y225743D02*
X113254Y224500D01*
X110743Y225743D02*
X112011D01*
X113254Y224500D02*
X114000D01*
X109124Y227362D02*
X110743Y225743D01*
X13500Y78000D02*
X15760Y75740D01*
Y71724D02*
Y75740D01*
X237152Y242955D02*
X237808D01*
X15804Y252700D02*
X17004Y251500D01*
X204000Y209500D02*
Y212551D01*
X191774Y157846D02*
X197153D01*
X199000Y190500D02*
X210500D01*
X190000Y181000D02*
Y197000D01*
X195000Y173000D02*
X198000Y170000D01*
X190000Y181000D02*
X195000Y176000D01*
X147736Y225394D02*
X147835Y225295D01*
X195000Y176000D02*
X201500D01*
X197153Y157846D02*
X200250Y154750D01*
X190533Y136500D02*
X197547D01*
X189033Y135000D02*
X190533Y136500D01*
X188000Y135000D02*
X189033D01*
X154086Y257086D02*
X158842Y261842D01*
X154086Y249086D02*
Y257086D01*
X152146Y247146D02*
X154086Y249086D01*
X151867Y252753D02*
Y267867D01*
X150197Y251083D02*
X151867Y252753D01*
Y267867D02*
X154000Y270000D01*
X147835Y247146D02*
X152146D01*
X147736Y245079D02*
X153579D01*
X111953Y198000D02*
X115967D01*
X117467Y199500D01*
X118500D01*
X144953Y163000D02*
Y178532D01*
X117126Y206358D02*
X144953Y178532D01*
X117126Y206358D02*
Y214469D01*
X111953Y198000D02*
X111953Y198000D01*
X128937Y257972D02*
X129035Y258071D01*
X164768Y123232D02*
Y125587D01*
X62677Y146000D02*
X63102Y146425D01*
X56500Y146000D02*
X62677D01*
X139024Y163024D02*
Y173476D01*
Y163024D02*
X139047Y163000D01*
X139000Y173500D02*
X139024Y173476D01*
X109000Y247838D02*
Y251420D01*
X109579Y245079D02*
X110968Y246468D01*
X108308Y247146D02*
X109000Y247838D01*
X106201Y254220D02*
X109000Y251420D01*
X110968Y246468D02*
Y252236D01*
X108661Y254543D02*
X110968Y252236D01*
X104232Y245079D02*
X109579D01*
X143500Y297500D02*
X147638Y301638D01*
X145500Y296500D02*
X155102Y306102D01*
X175197D01*
X116000Y280500D02*
X120765Y285265D01*
Y286653D01*
X134709Y304000D02*
X137795Y307087D01*
X112096Y207331D02*
X115157Y210392D01*
X109500Y207000D02*
X109831Y207331D01*
X112096D01*
X115157Y210392D02*
Y214469D01*
X147736Y233268D02*
X147736Y233268D01*
X238500Y243647D02*
Y262808D01*
X233370Y242945D02*
X233380Y242955D01*
X237808D02*
X238500Y243647D01*
X219500Y256547D02*
X219547D01*
X226500Y263500D01*
X237808D01*
X238500Y262808D01*
X191704Y252829D02*
X192171D01*
X188875Y250000D02*
X191704Y252829D01*
X184756Y250000D02*
X188875D01*
X184756Y267000D02*
X194000D01*
X212000Y268500D02*
X219153D01*
X219500Y268154D01*
X219500Y268154D01*
Y262453D02*
Y268154D01*
X228153Y268154D02*
X235000Y275000D01*
X219500Y268154D02*
X228153D01*
X219500Y274847D02*
Y281500D01*
X147736Y239173D02*
X147835Y239272D01*
X109705Y237205D02*
X123888D01*
X104232D02*
X109705D01*
X112000Y268244D02*
X112972D01*
X116000Y265216D01*
X119095Y262122D01*
X116000Y265216D02*
Y280500D01*
X119095Y257972D02*
Y262122D01*
X124072Y251000D02*
X126969Y253896D01*
X121991Y251000D02*
X124072D01*
X119095Y253896D02*
X121991Y251000D01*
X119095Y253896D02*
Y257972D01*
X123888Y237205D02*
X129794Y231299D01*
X139461Y227461D02*
X145276D01*
X139000Y227000D02*
X139461Y227461D01*
X145276D02*
X145374Y227362D01*
X147736D01*
X41000Y84500D02*
X52000D01*
X40500Y84000D02*
X41000Y84500D01*
X19744Y71969D02*
Y82500D01*
X25256Y73740D02*
Y82500D01*
X19500Y71724D02*
X19744Y71969D01*
X25256Y82500D02*
Y98744D01*
X16000Y50000D02*
X37000Y29000D01*
Y19000D02*
Y29000D01*
X16000Y50000D02*
Y62035D01*
X15760Y62276D02*
X16000Y62035D01*
X32500Y62244D02*
X41744D01*
X32500Y67756D02*
X41756D01*
X23240Y62276D02*
X23272Y62244D01*
X32500D01*
X20000Y104000D02*
X25256Y98744D01*
X13744Y88500D02*
X19744Y82500D01*
X162409Y125591D02*
X164764D01*
X165748Y115354D02*
Y124409D01*
X156500Y131500D02*
X162409Y125591D01*
X164764D02*
X164768Y125587D01*
X175000Y203953D02*
Y206216D01*
X176252Y179428D02*
Y183976D01*
Y179428D02*
X178000Y177680D01*
Y177000D02*
Y177680D01*
X169780Y177220D02*
Y183756D01*
Y177220D02*
X170000Y177000D01*
X169559Y183976D02*
X169780Y183756D01*
X168000Y191835D02*
X169559Y190276D01*
X175000Y191528D02*
X176252Y190276D01*
X139119Y239625D02*
X142604Y243110D01*
X139119Y239387D02*
Y239625D01*
X142604Y243110D02*
X147736D01*
X129378Y222000D02*
X132874Y218504D01*
X129000Y222000D02*
X129378D01*
X25000Y173000D02*
Y180047D01*
Y185953D02*
X25000Y185953D01*
Y192500D01*
X14500Y182000D02*
X15500Y183000D01*
X14500Y166547D02*
X16354Y164693D01*
X16158Y164496D02*
X16354Y164693D01*
X16158Y157803D02*
X23638D01*
X95000Y89850D02*
X103350D01*
X82000Y62000D02*
X93362D01*
X109000Y61000D02*
Y70685D01*
X118000Y61000D02*
Y70685D01*
Y112000D02*
X122000D01*
X118000Y111000D02*
Y112000D01*
X233370Y253181D02*
Y257906D01*
X244000Y252000D02*
Y261842D01*
Y234283D02*
Y244126D01*
X123016Y214453D02*
X123031Y214469D01*
X123016Y207016D02*
Y214453D01*
X123000Y207000D02*
X123016Y207016D01*
X126969Y214469D02*
X126969Y214469D01*
X132874Y214469D02*
Y218504D01*
X105142Y182000D02*
X106047Y182905D01*
Y198000D01*
X114953Y145000D02*
X114953Y145000D01*
X123000D01*
X114000Y157000D02*
X122716D01*
X109047Y145000D02*
Y152953D01*
X105000Y157000D02*
X109047Y152953D01*
X181102Y147539D02*
X186000Y152437D01*
Y157000D01*
X185912Y143912D02*
X188000Y146000D01*
X185912Y141203D02*
Y143912D01*
X183957Y140748D02*
X185457D01*
X185912Y141203D01*
X156047Y152047D02*
Y163000D01*
X141000Y151000D02*
Y159047D01*
X144953Y163000D01*
X141000Y143000D02*
Y151000D01*
X143252Y140748D02*
X162500D01*
X141000Y143000D02*
X143252Y140748D01*
X155000Y151000D02*
X158461Y147539D01*
X165354D01*
X155000Y151000D02*
X156047Y152047D01*
X88000Y143953D02*
X88000Y143953D01*
Y151000D01*
X82953Y157000D02*
X83252Y157299D01*
X143740Y61937D02*
X143870Y62067D01*
Y71870D02*
X144000Y72000D01*
X136000Y116953D02*
Y122000D01*
Y116953D02*
X136000Y116953D01*
X122000Y112000D02*
X122953Y111047D01*
X136000D01*
Y104953D02*
Y111047D01*
Y99047D02*
X136260Y98787D01*
Y88740D02*
Y98787D01*
X141000Y35291D02*
X141709Y36000D01*
X141000Y14000D02*
Y35291D01*
X112524Y14000D02*
X123000D01*
X93154Y102894D02*
X94000Y102047D01*
X83903Y102894D02*
X93154D01*
X99685Y81315D02*
X109000D01*
X83903Y107894D02*
X83962Y107953D01*
X94000D01*
X81500Y176000D02*
X85154D01*
X109686Y265263D02*
X112521D01*
X115157Y257972D02*
Y262626D01*
X112521Y265263D02*
X115157Y262626D01*
X108653Y266295D02*
X109686Y265263D01*
X109977Y231000D02*
X114000D01*
X104232Y227362D02*
X109124D01*
X134843Y210433D02*
Y214469D01*
X108661Y254543D02*
Y260720D01*
X104717Y293693D02*
X118110Y307087D01*
X106685Y265480D02*
X108870Y263295D01*
X104717Y264665D02*
X108661Y260720D01*
X102748Y263849D02*
Y301173D01*
Y263849D02*
X106201Y260397D01*
Y254220D02*
Y260397D01*
X104717Y264665D02*
Y293693D01*
X102748Y301173D02*
X108661Y307087D01*
X112000Y273756D02*
Y280000D01*
X178583Y249339D02*
X179244Y250000D01*
X104232Y229331D02*
X108308D01*
X109977Y231000D01*
X113091Y214567D02*
X113189Y214469D01*
X175000Y191528D02*
Y198047D01*
X168000Y191835D02*
Y198047D01*
X104232Y227362D02*
X104232Y227362D01*
X137189Y221189D02*
X138000Y222000D01*
X147736Y247047D02*
X147835Y247146D01*
X121063Y257972D02*
Y262937D01*
X113091Y258071D02*
X113189Y257972D01*
X147638Y301638D02*
Y307087D01*
X136811Y221189D02*
X137189D01*
X136811Y214469D02*
Y221189D01*
X85154Y176000D02*
X85870Y175284D01*
X175197Y306102D02*
X184252D01*
Y316252D01*
X192126Y302362D02*
X210630D01*
X224803Y316535D01*
X108189Y313465D02*
X108661Y312992D01*
X108189Y313465D02*
Y322835D01*
X118110Y322756D02*
X118189Y322835D01*
X118110Y312992D02*
Y322756D01*
X127953Y312992D02*
Y322598D01*
X128189Y322835D01*
X137795Y312992D02*
Y322441D01*
X138189Y322835D01*
X148189Y313543D02*
Y322835D01*
X147638Y312992D02*
X148189Y313543D01*
X30528Y164693D02*
X30528Y164693D01*
X22654D02*
X30528D01*
X16354Y135559D02*
Y140677D01*
Y135559D02*
X16748Y135165D01*
X16158Y147173D02*
X16354Y146976D01*
Y140677D02*
Y146976D01*
X170568Y127857D02*
X171260Y127165D01*
X168874Y127857D02*
X170568D01*
X168504Y128227D02*
X168874Y127857D01*
X168504Y128227D02*
Y133957D01*
X171260Y124409D02*
Y127165D01*
X165354Y133957D02*
X165748Y133563D01*
Y124409D02*
Y133563D01*
X15804Y252700D02*
Y262992D01*
X70583Y140126D02*
Y146425D01*
X66252Y145835D02*
X66843Y146425D01*
D23*
X163244Y220500D02*
D03*
X168756D02*
D03*
X163744Y239500D02*
D03*
X169256D02*
D03*
X184756Y250000D02*
D03*
X179244D02*
D03*
X144756Y265000D02*
D03*
X139244D02*
D03*
X90244Y237500D02*
D03*
X95756D02*
D03*
X71764Y138945D02*
D03*
X66252D02*
D03*
X179244Y267000D02*
D03*
X184756D02*
D03*
X72244Y83000D02*
D03*
X77756D02*
D03*
X21866Y140677D02*
D03*
X16354D02*
D03*
X16535Y251969D02*
D03*
X19744Y82500D02*
D03*
X191256Y124000D02*
D03*
X171260Y124409D02*
D03*
X145756Y206000D02*
D03*
X140244D02*
D03*
X165748Y124409D02*
D03*
X185744Y124000D02*
D03*
X25256Y82500D02*
D03*
X11024Y251969D02*
D03*
D24*
X200500Y136500D02*
D03*
Y154500D02*
D03*
X200000Y173000D02*
D03*
X209500Y231500D02*
D03*
Y245500D02*
D03*
X40500Y84000D02*
D03*
X126000Y288000D02*
D03*
X123000Y14000D02*
D03*
X79500Y175000D02*
D03*
X79000Y199500D02*
D03*
X199000Y206500D02*
D03*
Y190500D02*
D03*
X192000Y323000D02*
D03*
X16000Y50000D02*
D03*
X44000Y175000D02*
D03*
X141000Y14000D02*
D03*
X118000Y111000D02*
D03*
X235000Y275000D02*
D03*
D25*
X59500Y251500D02*
D03*
X155000Y151000D02*
D03*
X141000D02*
D03*
X74000Y251500D02*
D03*
X14500Y182000D02*
D03*
X87500Y264500D02*
D03*
D26*
X244000Y252000D02*
D03*
Y244126D02*
D03*
D27*
X233370Y242945D02*
D03*
Y245504D02*
D03*
Y248063D02*
D03*
Y250622D02*
D03*
Y253181D02*
D03*
D28*
X169559Y183976D02*
D03*
Y190276D02*
D03*
X176252Y183976D02*
D03*
Y190276D02*
D03*
X88000Y151000D02*
D03*
Y157299D02*
D03*
X25000Y192500D02*
D03*
Y198799D02*
D03*
D29*
X23240Y71724D02*
D03*
X15760D02*
D03*
Y62276D02*
D03*
X19500D02*
D03*
X23240D02*
D03*
X19500Y71724D02*
D03*
D30*
X122858Y182000D02*
D03*
X105142D02*
D03*
X105000Y157000D02*
D03*
X122716D02*
D03*
D31*
X21461Y223500D02*
D03*
Y213500D02*
D03*
X56500Y223500D02*
D03*
Y213500D02*
D03*
D32*
X64547Y218500D02*
D03*
X70453D02*
D03*
X64547Y213000D02*
D03*
X70453D02*
D03*
X82453Y157000D02*
D03*
X76547D02*
D03*
X163953Y82000D02*
D03*
X158047D02*
D03*
X139047Y163000D02*
D03*
X144953D02*
D03*
X114953Y145000D02*
D03*
X109047D02*
D03*
X111953Y198000D02*
D03*
X106047D02*
D03*
X161953Y163000D02*
D03*
X156047D02*
D03*
X182047Y236000D02*
D03*
X187953D02*
D03*
X182047Y230500D02*
D03*
X187953D02*
D03*
D33*
X160776Y246839D02*
D03*
Y264161D02*
D03*
X170224D02*
D03*
Y246839D02*
D03*
D34*
X97500Y252244D02*
D03*
Y257756D02*
D03*
X32500Y67756D02*
D03*
Y62244D02*
D03*
X122500Y273756D02*
D03*
X129000Y273756D02*
D03*
X112000Y273756D02*
D03*
X153500Y276634D02*
D03*
X159500Y276756D02*
D03*
Y271244D02*
D03*
X153500Y271122D02*
D03*
X112000Y268244D02*
D03*
X129000Y268244D02*
D03*
X122500Y268244D02*
D03*
D35*
X140748Y257972D02*
D03*
X136811D02*
D03*
X134843D02*
D03*
X132874D02*
D03*
X130905D02*
D03*
X128937D02*
D03*
X126969D02*
D03*
X125000D02*
D03*
X123031D02*
D03*
X121063D02*
D03*
X119095D02*
D03*
X117126D02*
D03*
X115157D02*
D03*
X113189D02*
D03*
X111221D02*
D03*
Y214469D02*
D03*
X113189D02*
D03*
X115157D02*
D03*
X117126D02*
D03*
X119095D02*
D03*
X121063D02*
D03*
X123031D02*
D03*
X125000D02*
D03*
X126969D02*
D03*
X128937D02*
D03*
X130905D02*
D03*
X132874D02*
D03*
X134843D02*
D03*
X138779D02*
D03*
X140748D02*
D03*
X136811D02*
D03*
X138779Y257972D02*
D03*
D36*
X104232Y249016D02*
D03*
Y247047D02*
D03*
Y245079D02*
D03*
Y243110D02*
D03*
Y241142D02*
D03*
Y239173D02*
D03*
Y237205D02*
D03*
Y235236D02*
D03*
Y233268D02*
D03*
Y231299D02*
D03*
Y229331D02*
D03*
Y227362D02*
D03*
Y225394D02*
D03*
Y223425D02*
D03*
Y221457D02*
D03*
X147736D02*
D03*
Y223425D02*
D03*
Y225394D02*
D03*
Y227362D02*
D03*
Y229331D02*
D03*
Y231299D02*
D03*
Y233268D02*
D03*
Y235236D02*
D03*
Y237205D02*
D03*
Y239173D02*
D03*
Y241142D02*
D03*
Y245079D02*
D03*
Y247047D02*
D03*
Y249016D02*
D03*
Y250984D02*
D03*
Y243110D02*
D03*
X104232Y250984D02*
D03*
D37*
X167185Y275000D02*
D03*
X177815D02*
D03*
D38*
X34465Y146976D02*
D03*
Y141071D02*
D03*
X88000Y143953D02*
D03*
Y138047D02*
D03*
X128000Y56047D02*
D03*
Y61953D02*
D03*
X136000Y116953D02*
D03*
Y111047D02*
D03*
Y104953D02*
D03*
Y99047D02*
D03*
X175197Y300197D02*
D03*
X25000Y180047D02*
D03*
X219500Y256547D02*
D03*
Y262453D02*
D03*
X94000Y107953D02*
D03*
Y102047D02*
D03*
X15500Y198453D02*
D03*
Y192547D02*
D03*
X25000Y185953D02*
D03*
X175197Y306102D02*
D03*
X108661Y312992D02*
D03*
Y307087D02*
D03*
X118110Y312992D02*
D03*
Y307087D02*
D03*
X127953Y312992D02*
D03*
Y307087D02*
D03*
X137795Y312992D02*
D03*
Y307087D02*
D03*
X147638Y312992D02*
D03*
Y307087D02*
D03*
X168000Y203953D02*
D03*
Y198047D02*
D03*
X175000Y203953D02*
D03*
Y198047D02*
D03*
D39*
X67150Y164500D02*
D03*
X60850D02*
D03*
X22654Y164693D02*
D03*
X16354D02*
D03*
D40*
X130291Y36000D02*
D03*
X141709D02*
D03*
D41*
X63102Y146425D02*
D03*
X66843D02*
D03*
X70583D02*
D03*
Y157055D02*
D03*
X63102D02*
D03*
X16158Y147173D02*
D03*
X23638D02*
D03*
Y157803D02*
D03*
X16158D02*
D03*
X19898Y147173D02*
D03*
D42*
X10799Y262992D02*
D03*
X15804D02*
D03*
X20810D02*
D03*
X25815D02*
D03*
X30821D02*
D03*
X35827D02*
D03*
X40832D02*
D03*
X45838D02*
D03*
D43*
X165748Y115354D02*
D03*
X177559D02*
D03*
X137594Y287000D02*
D03*
X149406D02*
D03*
D44*
X180150Y66000D02*
D03*
X173850D02*
D03*
D45*
X65890Y25000D02*
D03*
X102110D02*
D03*
D46*
X109000Y70685D02*
D03*
Y81315D02*
D03*
X118000Y70685D02*
D03*
Y81315D02*
D03*
D47*
X95000Y96150D02*
D03*
Y89850D02*
D03*
D48*
X143740Y61937D02*
D03*
X136260D02*
D03*
X140000Y54063D02*
D03*
D49*
X65703Y102894D02*
D03*
Y97894D02*
D03*
Y92894D02*
D03*
Y107894D02*
D03*
X83903D02*
D03*
Y102894D02*
D03*
Y97894D02*
D03*
Y92894D02*
D03*
D50*
X177953Y133957D02*
D03*
X174803D02*
D03*
X168504D02*
D03*
Y147539D02*
D03*
X181102D02*
D03*
X177953D02*
D03*
X174803D02*
D03*
X171653D02*
D03*
X165354D02*
D03*
Y133957D02*
D03*
X171653D02*
D03*
X181102D02*
D03*
D51*
X184252Y298622D02*
D03*
X192126Y302362D02*
D03*
X184252Y306102D02*
D03*
D52*
X93362Y62000D02*
D03*
X66000D02*
D03*
D53*
X219500Y274847D02*
D03*
Y268154D02*
D03*
D54*
X11000Y233594D02*
D03*
Y245406D02*
D03*
D55*
X183957Y140748D02*
D03*
X162500D02*
D03*
D82*
X74803Y100394D02*
D03*
D106*
X82453Y157000D02*
Y160453D01*
X85500Y163500D01*
X70638Y157000D02*
X76547D01*
X63102Y157055D02*
X70583D01*
X82476Y152024D02*
Y156976D01*
X20000Y119000D02*
X29500Y128500D01*
X78000D02*
X80500Y131000D01*
X29500Y128500D02*
X78000D01*
X15846Y198799D02*
X25000D01*
X11000Y202953D02*
X15500Y198453D01*
X11000Y202953D02*
Y233594D01*
X11024Y245429D02*
Y251969D01*
Y262767D01*
X20000Y104000D02*
Y119000D01*
X15500Y183000D02*
Y192547D01*
X14500Y166547D02*
Y182000D01*
X16158Y157803D02*
Y164496D01*
D107*
X187953Y235606D02*
Y236000D01*
Y230500D02*
Y230894D01*
X194956Y234500D02*
X200206Y239750D01*
X195991Y232000D02*
X201241Y237250D01*
X189059Y234500D02*
X194956D01*
X187953Y235606D02*
X189059Y234500D01*
X189059Y232000D02*
X195991D01*
X187953Y230894D02*
X189059Y232000D01*
X233341Y248033D02*
X233370Y248063D01*
X226377Y248033D02*
X233341D01*
X215198Y240629D02*
Y242313D01*
X218094Y239750D02*
X226377Y248033D01*
X216077Y239750D02*
X218094D01*
X215198Y240629D02*
X216077Y239750D01*
X209500Y245500D02*
X212011D01*
X215198Y242313D01*
X233341Y245533D02*
X233370Y245504D01*
X227413Y245533D02*
X233341D01*
X216077Y237250D02*
X219129D01*
X227413Y245533D01*
X215198Y236371D02*
X216077Y237250D01*
X215198Y234687D02*
Y236371D01*
X212011Y231500D02*
X215198Y234687D01*
X209500Y231500D02*
X212011D01*
X202923Y237250D02*
X203802Y236371D01*
X201241Y237250D02*
X202923D01*
X206989Y231500D02*
X209500D01*
X206989Y245500D02*
X209500D01*
X203802Y242313D02*
X206989Y245500D01*
X203802Y234687D02*
X206989Y231500D01*
X200206Y239750D02*
X202923D01*
X203802Y240629D02*
Y242313D01*
X202923Y239750D02*
X203802Y240629D01*
Y234687D02*
Y236371D01*
D108*
X65703Y97894D02*
X68203Y100394D01*
X65703Y102894D02*
X68203Y100394D01*
X74803D01*
X143870Y62067D02*
Y71870D01*
X163953Y82000D02*
X195000D01*
X214000Y101000D01*
X145685Y81315D02*
X157362D01*
X158047Y82000D01*
X83903Y97894D02*
Y102894D01*
X90332Y96150D02*
X95000D01*
X88587Y97894D02*
X90332Y96150D01*
X83903Y97894D02*
X88587D01*
X136260Y61937D02*
Y88740D01*
X128850Y96150D02*
X136260Y88740D01*
X118000Y81315D02*
X126685D01*
X109000D02*
X118000D01*
X95000Y96150D02*
X128850D01*
X128000Y61953D02*
X128016Y61937D01*
X136260D01*
X130074Y53973D02*
X137745D01*
X137835Y54063D01*
X140000D01*
X128000Y56047D02*
X130074Y53973D01*
X140000Y48063D02*
Y52862D01*
X130291Y36000D02*
X130882Y36590D01*
Y38945D01*
X140000Y48063D01*
X141709Y36000D02*
X154000D01*
X173000Y55000D01*
Y65150D01*
X183011Y63064D02*
Y63139D01*
X183000Y55000D02*
Y63053D01*
X183011Y63064D01*
X180150Y66000D02*
X183011Y63139D01*
X173000Y65150D02*
X173850Y66000D01*
X72244Y77244D02*
Y83000D01*
X66000Y25110D02*
Y71000D01*
X72244Y77244D01*
X102110Y25000D02*
Y74425D01*
X109000Y81315D01*
X93941Y107894D02*
X94000Y107953D01*
X77756Y86747D02*
X83903Y92894D01*
X77756Y83000D02*
Y86747D01*
X65703Y89541D02*
Y92894D01*
Y89541D02*
X72244Y83000D01*
X65890Y25000D02*
X66000Y25110D01*
D109*
X223000Y195000D02*
D03*
X233000D02*
D03*
X223000Y185000D02*
D03*
X233000D02*
D03*
X223000Y165000D02*
D03*
X233000D02*
D03*
X223000Y155000D02*
D03*
X233000Y175000D02*
D03*
X223000D02*
D03*
D110*
X233000Y155000D02*
D03*
D111*
X233370Y238221D02*
D03*
Y257906D02*
D03*
D112*
X244000Y233496D02*
D03*
Y262630D02*
D03*
D113*
X224803Y316535D02*
D03*
X145685Y81315D02*
D03*
X126685D02*
D03*
X74803Y100394D02*
D03*
D114*
X224803Y296850D02*
D03*
D115*
X173000Y55000D02*
D03*
X163000D02*
D03*
D116*
X183000D02*
D03*
D117*
X148000Y321000D02*
D03*
X138000D02*
D03*
X128000D02*
D03*
X118000D02*
D03*
X158000D02*
D03*
X30000Y119000D02*
D03*
X20000D02*
D03*
X224000Y101000D02*
D03*
X234000D02*
D03*
X20000Y104000D02*
D03*
X30000D02*
D03*
D118*
X108000Y321000D02*
D03*
X10000Y119000D02*
D03*
X214000Y101000D02*
D03*
X10000Y104000D02*
D03*
D119*
X227500Y19500D02*
D03*
Y49500D02*
D03*
D120*
X27000Y21000D02*
D03*
D121*
X37000D02*
D03*
X47000D02*
D03*
D122*
X124000Y278000D02*
D03*
X169000Y156000D02*
D03*
X21000Y207500D02*
D03*
X85500Y163500D02*
D03*
X92500Y252000D02*
D03*
X139193Y269500D02*
D03*
X132500Y265500D02*
D03*
X116000Y249500D02*
D03*
X151000Y205500D02*
D03*
X136000Y207000D02*
D03*
X82500Y152000D02*
D03*
X82000Y138500D02*
D03*
X175000Y295500D02*
D03*
X184000Y294000D02*
D03*
X176500Y124500D02*
D03*
X114000Y182000D02*
D03*
X21500Y229500D02*
D03*
X65000Y134500D02*
D03*
X71500Y134000D02*
D03*
X176000Y221000D02*
D03*
X133000Y274000D02*
D03*
X184500Y275500D02*
D03*
X145000Y269500D02*
D03*
X86000Y237500D02*
D03*
X21500Y246500D02*
D03*
X100508Y216992D02*
D03*
X76000Y216000D02*
D03*
Y209500D02*
D03*
X48500Y254500D02*
D03*
X114000Y224500D02*
D03*
X13500Y78000D02*
D03*
X210500Y190500D02*
D03*
X56500Y146000D02*
D03*
X98500Y265000D02*
D03*
X109500Y207000D02*
D03*
X192171Y252829D02*
D03*
X194000Y267000D02*
D03*
X52000Y84500D02*
D03*
X41744Y62244D02*
D03*
X41756Y67756D02*
D03*
X13744Y88500D02*
D03*
X156500Y131500D02*
D03*
X170000Y177000D02*
D03*
X178000D02*
D03*
X139119Y239387D02*
D03*
X188000Y146000D02*
D03*
X136000Y122000D02*
D03*
X112524Y14000D02*
D03*
X99685Y81315D02*
D03*
X58106Y107894D02*
D03*
X114000Y231000D02*
D03*
Y157000D02*
D03*
X112000Y280000D02*
D03*
X154500Y282500D02*
D03*
X136811Y221189D02*
D03*
X30528Y164693D02*
D03*
X26500Y134500D02*
D03*
X16748Y135165D02*
D03*
D123*
X197500Y121500D02*
D03*
X165000Y169500D02*
D03*
X133392Y199392D02*
D03*
X190500Y164000D02*
D03*
X177000Y159000D02*
D03*
X84000Y227500D02*
D03*
X44000Y162000D02*
D03*
X80500Y131000D02*
D03*
X34500Y135272D02*
D03*
X157500Y219500D02*
D03*
X53000Y164500D02*
D03*
X118000Y134000D02*
D03*
X239000Y224000D02*
D03*
X188000Y135000D02*
D03*
X118500Y199500D02*
D03*
X139000Y173500D02*
D03*
X212000Y268500D02*
D03*
X219500Y281500D02*
D03*
X139000Y227000D02*
D03*
X129000Y222000D02*
D03*
X25000Y173000D02*
D03*
X103350Y89850D02*
D03*
X82000Y62000D02*
D03*
X109000Y61000D02*
D03*
X118000D02*
D03*
X123000Y207000D02*
D03*
X127000Y202000D02*
D03*
X186000Y157000D02*
D03*
X123000Y145000D02*
D03*
X144000Y72000D02*
D03*
D124*
X174500Y240000D02*
D03*
X166536Y235662D02*
D03*
M02*
