G04*
G04 #@! TF.GenerationSoftware,Altium Limited,Altium Designer,23.11.1 (41)*
G04*
G04 Layer_Color=16711935*
%FSLAX25Y25*%
%MOIN*%
G70*
G04*
G04 #@! TF.SameCoordinates,5FF802D6-143A-4804-846E-93AAEE263E3C*
G04*
G04*
G04 #@! TF.FilePolarity,Positive*
G04*
G01*
G75*
%ADD14C,0.00394*%
%ADD15C,0.01000*%
%ADD20C,0.00600*%
D14*
X249709Y228378D02*
Y267748D01*
X79681Y61213D02*
Y62787D01*
X78894Y62000D02*
X80468D01*
X252937Y239598D02*
X250875D01*
Y240630D01*
X251218Y240973D01*
X251906D01*
X252250Y240630D01*
Y239598D01*
X251218Y243036D02*
X250875Y242692D01*
Y242004D01*
X251218Y241661D01*
X252593D01*
X252937Y242004D01*
Y242692D01*
X252593Y243036D01*
X250875Y243723D02*
X252937D01*
Y244754D01*
X252593Y245098D01*
X252250D01*
X251906Y244754D01*
Y243723D01*
Y244754D01*
X251562Y245098D01*
X251218D01*
X250875Y244754D01*
Y243723D01*
Y249223D02*
Y247848D01*
X252937D01*
Y249223D01*
X251906Y247848D02*
Y248535D01*
X250875Y251285D02*
X252937D01*
Y250254D01*
X252593Y249910D01*
X251906D01*
X251562Y250254D01*
Y251285D01*
X253624Y252660D02*
Y253004D01*
X253281Y253347D01*
X251562D01*
Y252316D01*
X251906Y251972D01*
X252593D01*
X252937Y252316D01*
Y253347D01*
Y255066D02*
Y254378D01*
X252593Y254035D01*
X251906D01*
X251562Y254378D01*
Y255066D01*
X251906Y255410D01*
X252250D01*
Y254035D01*
D15*
X-23228Y334646D02*
X-21228Y328646D01*
X-25228D02*
X-23228Y334646D01*
X-25228Y6000D02*
X-23228Y0D01*
X-21228Y6000D01*
X-23228Y180818D02*
Y334646D01*
Y0D02*
Y150627D01*
X-24228Y334646D02*
X-1500D01*
X-24228Y0D02*
X-1500D01*
X245969Y348394D02*
X251969Y350394D01*
X245969Y352394D02*
X251969Y350394D01*
X0D02*
X6000Y352394D01*
X0Y350394D02*
X6000Y348394D01*
X139480Y350394D02*
X251969D01*
X0D02*
X109289D01*
X251969Y338583D02*
Y351394D01*
X0Y338583D02*
Y351394D01*
D20*
X-24628Y152227D02*
X-25627Y153227D01*
Y155226D01*
X-24628Y156226D01*
X-23628D01*
X-22628Y155226D01*
X-21629Y156226D01*
X-20629D01*
X-19629Y155226D01*
Y153227D01*
X-20629Y152227D01*
X-21629D01*
X-22628Y153227D01*
X-23628Y152227D01*
X-24628D01*
X-22628Y153227D02*
Y155226D01*
X-25627Y162224D02*
Y158225D01*
X-22628D01*
X-23628Y160225D01*
Y161224D01*
X-22628Y162224D01*
X-20629D01*
X-19629Y161224D01*
Y159225D01*
X-20629Y158225D01*
X-19629Y164223D02*
X-20629D01*
Y165223D01*
X-19629D01*
Y164223D01*
X-24628Y169222D02*
X-25627Y170221D01*
Y172221D01*
X-24628Y173220D01*
X-20629D01*
X-19629Y172221D01*
Y170221D01*
X-20629Y169222D01*
X-24628D01*
Y175220D02*
X-25627Y176219D01*
Y178219D01*
X-24628Y179218D01*
X-20629D01*
X-19629Y178219D01*
Y176219D01*
X-20629Y175220D01*
X-24628D01*
X114887Y352793D02*
X112888Y351793D01*
X110889Y349794D01*
Y347794D01*
X111888Y346795D01*
X113888D01*
X114887Y347794D01*
Y348794D01*
X113888Y349794D01*
X110889D01*
X119886Y346795D02*
Y352793D01*
X116887Y349794D01*
X120885D01*
X122885Y346795D02*
Y347794D01*
X123884D01*
Y346795D01*
X122885D01*
X127883Y351793D02*
X128883Y352793D01*
X130882D01*
X131882Y351793D01*
Y347794D01*
X130882Y346795D01*
X128883D01*
X127883Y347794D01*
Y351793D01*
X133881D02*
X134881Y352793D01*
X136880D01*
X137880Y351793D01*
Y347794D01*
X136880Y346795D01*
X134881D01*
X133881Y347794D01*
Y351793D01*
M02*
