G04*
G04 #@! TF.GenerationSoftware,Altium Limited,Altium Designer,23.11.1 (41)*
G04*
G04 Layer_Physical_Order=3*
G04 Layer_Color=128*
%FSLAX25Y25*%
%MOIN*%
G70*
G04*
G04 #@! TF.SameCoordinates,5FF802D6-143A-4804-846E-93AAEE263E3C*
G04*
G04*
G04 #@! TF.FilePolarity,Negative*
G04*
G01*
G75*
%ADD15C,0.01000*%
%ADD125C,0.04000*%
%ADD126C,0.14236*%
%ADD127C,0.07937*%
G04:AMPARAMS|DCode=128|XSize=99.37mil|YSize=99.37mil|CornerRadius=0mil|HoleSize=0mil|Usage=FLASHONLY|Rotation=0.000|XOffset=0mil|YOffset=0mil|HoleType=Round|Shape=Relief|Width=10mil|Gap=10mil|Entries=4|*
%AMTHD128*
7,0,0,0.09937,0.07937,0.01000,45*
%
%ADD128THD128*%
%ADD132C,0.07150*%
%ADD133C,0.09000*%
%ADD135C,0.07543*%
G04:AMPARAMS|DCode=136|XSize=95.433mil|YSize=95.433mil|CornerRadius=0mil|HoleSize=0mil|Usage=FLASHONLY|Rotation=0.000|XOffset=0mil|YOffset=0mil|HoleType=Round|Shape=Relief|Width=10mil|Gap=10mil|Entries=4|*
%AMTHD136*
7,0,0,0.09543,0.07543,0.01000,45*
%
%ADD136THD136*%
G04:AMPARAMS|DCode=138|XSize=79.685mil|YSize=79.685mil|CornerRadius=0mil|HoleSize=0mil|Usage=FLASHONLY|Rotation=0.000|XOffset=0mil|YOffset=0mil|HoleType=Round|Shape=Relief|Width=10mil|Gap=10mil|Entries=4|*
%AMTHD138*
7,0,0,0.07969,0.05969,0.01000,45*
%
%ADD138THD138*%
%ADD139C,0.05969*%
G04:AMPARAMS|DCode=140|XSize=88mil|YSize=88mil|CornerRadius=0mil|HoleSize=0mil|Usage=FLASHONLY|Rotation=0.000|XOffset=0mil|YOffset=0mil|HoleType=Round|Shape=Relief|Width=10mil|Gap=10mil|Entries=4|*
%AMTHD140*
7,0,0,0.08800,0.06800,0.01000,45*
%
%ADD140THD140*%
%ADD141C,0.06800*%
G04:AMPARAMS|DCode=142|XSize=71.811mil|YSize=71.811mil|CornerRadius=0mil|HoleSize=0mil|Usage=FLASHONLY|Rotation=0.000|XOffset=0mil|YOffset=0mil|HoleType=Round|Shape=Relief|Width=10mil|Gap=10mil|Entries=4|*
%AMTHD142*
7,0,0,0.07181,0.05181,0.01000,45*
%
%ADD142THD142*%
%ADD143C,0.05181*%
%ADD144O,0.06165X0.07347*%
%ADD145O,0.08528X0.05969*%
%ADD146O,0.08528X0.05969*%
G04:AMPARAMS|DCode=147|XSize=91.496mil|YSize=91.496mil|CornerRadius=0mil|HoleSize=0mil|Usage=FLASHONLY|Rotation=0.000|XOffset=0mil|YOffset=0mil|HoleType=Round|Shape=Relief|Width=10mil|Gap=10mil|Entries=4|*
%AMTHD147*
7,0,0,0.09150,0.07150,0.01000,45*
%
%ADD147THD147*%
%ADD148C,0.09906*%
G36*
X1969Y332283D02*
X97500Y332500D01*
X86000Y274500D01*
X1969Y274000D01*
Y332283D01*
D02*
G37*
D15*
X2000Y151047D02*
X76000Y151047D01*
X1969Y1575D02*
X250000D01*
X1969D02*
Y194882D01*
X76047Y127591D02*
X250000Y127591D01*
X76047Y128000D02*
Y151000D01*
D125*
X0Y334646D02*
X251969D01*
Y0D02*
Y334646D01*
X0Y0D02*
X251969D01*
X0D02*
Y334646D01*
D126*
X174000Y322000D02*
D03*
X58500Y195000D02*
D03*
X41500Y46500D02*
D03*
X228000Y79500D02*
D03*
D127*
X223000Y195000D02*
D03*
X233000D02*
D03*
X223000Y165000D02*
D03*
X233000D02*
D03*
X223000Y155000D02*
D03*
X233000D02*
D03*
Y175000D02*
D03*
X223000D02*
D03*
X145685Y81315D02*
D03*
X126685D02*
D03*
D128*
X223000Y185000D02*
D03*
X233000D02*
D03*
D132*
X224803Y316535D02*
D03*
D133*
X173000Y55000D02*
D03*
X183000D02*
D03*
X163000D02*
D03*
D135*
X148000Y321000D02*
D03*
X138000D02*
D03*
X128000D02*
D03*
X118000D02*
D03*
X108000D02*
D03*
X158000D02*
D03*
X30000Y119000D02*
D03*
X20000D02*
D03*
X214000Y101000D02*
D03*
X234000D02*
D03*
X20000Y104000D02*
D03*
X30000D02*
D03*
X37000Y21000D02*
D03*
X47000D02*
D03*
D136*
X10000Y119000D02*
D03*
X224000Y101000D02*
D03*
X10000Y104000D02*
D03*
X27000Y21000D02*
D03*
D138*
X85500Y163500D02*
D03*
X92500Y252000D02*
D03*
X132500Y265500D02*
D03*
X136000Y207000D02*
D03*
X82500Y152000D02*
D03*
X71500Y134000D02*
D03*
X145000Y269500D02*
D03*
X210500Y190500D02*
D03*
X56500Y146000D02*
D03*
X41744Y62244D02*
D03*
X156500Y131500D02*
D03*
X170000Y177000D02*
D03*
X178000D02*
D03*
X188000Y146000D02*
D03*
X112524Y14000D02*
D03*
X16748Y135165D02*
D03*
D139*
X124000Y278000D02*
D03*
X169000Y156000D02*
D03*
X21000Y207500D02*
D03*
X139193Y269500D02*
D03*
X116000Y249500D02*
D03*
X151000Y205500D02*
D03*
X82000Y138500D02*
D03*
X175000Y295500D02*
D03*
X184000Y294000D02*
D03*
X176500Y124500D02*
D03*
X114000Y182000D02*
D03*
X21500Y229500D02*
D03*
X65000Y134500D02*
D03*
X176000Y221000D02*
D03*
X133000Y274000D02*
D03*
X184500Y275500D02*
D03*
X86000Y237500D02*
D03*
X21500Y246500D02*
D03*
X100508Y216992D02*
D03*
X76000Y216000D02*
D03*
Y209500D02*
D03*
X48500Y254500D02*
D03*
X114000Y224500D02*
D03*
X13500Y78000D02*
D03*
X98500Y265000D02*
D03*
X109500Y207000D02*
D03*
X192171Y252829D02*
D03*
X194000Y267000D02*
D03*
X52000Y84500D02*
D03*
X41756Y67756D02*
D03*
X13744Y88500D02*
D03*
X139119Y239387D02*
D03*
X136000Y122000D02*
D03*
X99685Y81315D02*
D03*
X58106Y107894D02*
D03*
X114000Y231000D02*
D03*
Y157000D02*
D03*
X112000Y280000D02*
D03*
X154500Y282500D02*
D03*
X136811Y221189D02*
D03*
X30528Y164693D02*
D03*
X26500Y134500D02*
D03*
D140*
X165000Y169500D02*
D03*
X80500Y131000D02*
D03*
X139000Y173500D02*
D03*
D141*
X197500Y121500D02*
D03*
X133392Y199392D02*
D03*
X190500Y164000D02*
D03*
X177000Y159000D02*
D03*
X84000Y227500D02*
D03*
X44000Y162000D02*
D03*
X34500Y135272D02*
D03*
X157500Y219500D02*
D03*
X53000Y164500D02*
D03*
X118000Y134000D02*
D03*
X239000Y224000D02*
D03*
X188000Y135000D02*
D03*
X118500Y199500D02*
D03*
X212000Y268500D02*
D03*
X219500Y281500D02*
D03*
X139000Y227000D02*
D03*
X129000Y222000D02*
D03*
X25000Y173000D02*
D03*
X103350Y89850D02*
D03*
X82000Y62000D02*
D03*
X109000Y61000D02*
D03*
X118000D02*
D03*
X123000Y207000D02*
D03*
X127000Y202000D02*
D03*
X186000Y157000D02*
D03*
X123000Y145000D02*
D03*
X144000Y72000D02*
D03*
D142*
X166536Y235662D02*
D03*
D143*
X174500Y240000D02*
D03*
D144*
X233370Y238221D02*
D03*
Y257906D02*
D03*
D145*
X244000Y234283D02*
D03*
D146*
Y261842D02*
D03*
D147*
X224803Y296850D02*
D03*
D148*
X227500Y19500D02*
D03*
Y49500D02*
D03*
X74803Y100394D02*
D03*
M02*
