M48
;Layer_Color=9474304
;FILE_FORMAT=2:4
INCH,LZ
;TYPE=PLATED
T01F00S00C0.0118
T02F00S00C0.0197
T05F00S00C0.0280
T06F00S00C0.0315
T07F00S00C0.0354
T08F00S00C0.0394
T09F00S00C0.0500
T10F00S00C0.0591
;TYPE=NON_PLATED
T11F00S00C0.1024
%
T01
X016654Y023566
X01745Y024
T02
X01565Y01315
X01765Y01245
X0136Y0122
X00715Y0134
X0065Y01345
X005811Y010789
X0052Y00845
X004176Y006776
X004174Y006224
X00135Y0078
X001374Y00885
X001675Y013517
X00265Y01345
X009969Y008131
X011252Y0014
X0114Y0157
Y0182
X01095Y0207
X010051Y021699
X0114Y02245
Y0231
X0116Y02495
X00925Y0252
X00985Y0265
X0112Y028
X0124Y0278
X0133Y0274
X01325Y02655
X013919Y02695
X0145
X01545Y02825
X013912Y023939
X013681Y022119
X0136Y0207
X0151Y02055
X0076Y02095
Y0216
X0086Y02375
X00485Y02545
X00215Y02465
Y02295
X0021Y02075
X003053Y016469
X00565Y0146
X00825Y0152
X0082Y01385
X00855Y01635
X0169Y0156
X017Y0177
X0178
X0188Y0146
X02105Y01905
X0176Y0221
X019217Y025283
X0194Y0267
X01845Y02755
X0184Y0294
X0175Y02955
T05
X01975Y01215
X0188Y0135
X0118Y0134
X00805Y0131
X00345Y013527
X010335Y008985
X0109Y0061
X0118
X0082Y0062
X0144Y0072
X0123Y0145
X0139Y01735
X013339Y019939
X0127Y0202
X0123Y0207
X01185Y01995
X0129Y0222
X0139Y0227
X0084Y02275
X0053Y01645
X0044Y0162
X0025Y0173
X0165Y01695
X0177Y0159
X0186Y0157
X01905Y0164
X01575Y02195
X0239Y0224
X0212Y02685
X02195Y02815
T06
X02248Y029685
Y031654
T07
X0214Y0101
X0224
X0234
X003Y0104
X002
X001
Y0119
X002
X003
X0027Y0021
X0037
X0047
X0158Y0321
X0148
X0138
X0128
X0118
X0108
T08
X012668Y008131
X014569
X0223Y0155
X0233
Y0165
X0223
Y0175
Y0185
Y0195
X0233
Y0185
Y0175
T09
X0163Y0055
X0173
X0183
T10
X02275Y00195
Y00495
X00748Y010039
T11
X0228Y00795
X00415Y00465
X00585Y0195
X0174Y0322
M30
